<svg width="725" height="222" viewBox="0 0 725 222" fill="none" xmlns="http://www.w3.org/2000/svg">
<path d="M429.55 125.33C427.16 132.51 421.09 136.66 412 136.66C399.55 136.66 391.42 129.32 389.34 116.55H453.8C453.8 116.55 454.28 111.29 454.28 107.3C454.28 87.99 440.88 64.86 409.92 64.86C379.61 64.86 366.05 88.31 366.05 110.49C366.05 132.67 381.2 156.12 411.2 156.12C427.12 156.12 441.51 150.68 448.99 138.18L429.55 125.33ZM389.82 100.12C392.21 88.47 399.39 82.12 409.92 82.12C421.73 82.12 428.43 89.46 428.92 100.12H389.82ZM354.1 20.47C351.181 18.52 347.749 17.4794 344.238 17.4799C340.728 17.4803 337.296 18.5217 334.377 20.4725C331.459 22.4232 329.184 25.1956 327.841 28.4391C326.498 31.6826 326.147 35.2515 326.832 38.6946C327.517 42.1376 329.208 45.3002 331.691 47.7823C334.173 50.2644 337.336 51.9546 340.779 52.6391C344.223 53.3237 347.791 52.9718 351.035 51.6281C354.278 50.2844 357.05 48.0091 359 45.09C361.612 41.1746 362.564 36.3823 361.645 31.7659C360.726 27.1495 358.013 23.0867 354.1 20.47ZM517.86 85.61V66.3H496.47V36.51L472.85 46.63V66.3H458.65V85.61H472.85V124.55C472.85 144.98 486.58 155.99 504.93 155.99C509.347 156.132 513.746 155.373 517.86 153.76V133.65C514.796 135.004 511.468 135.656 508.12 135.56C500.94 135.56 496.47 130.94 496.47 122.32V85.61H517.86ZM321 185.82C340.89 186.62 354.37 173.52 354.37 152.9V66.28H342.78C339.597 66.28 336.545 67.5443 334.295 69.7947C332.044 72.0451 330.78 75.0974 330.78 78.28V149.7C330.78 159.93 326.28 165.37 318.1 165.37H314.25V185.66L321 185.82Z" fill="#280459"/>
<path d="M555.202 155.205H531.913V66.8055H555.202V155.205Z" fill="#280459"/>
<path d="M543.74 18C547.25 17.998 550.682 19.0369 553.602 20.9855H553.563C557.483 23.5943 560.207 27.6536 561.135 32.2705C562.064 36.8874 561.12 41.684 558.512 45.6055C556.563 48.5251 553.792 50.8012 550.55 52.146C547.307 53.4907 543.738 53.8438 540.295 53.1605C536.852 52.4771 533.688 50.7882 531.205 48.3071C528.721 45.826 527.029 42.6642 526.343 39.2215C525.656 35.7788 526.006 32.2099 527.348 28.9659C528.689 25.722 530.963 22.9487 533.881 20.9968C536.798 19.0449 540.229 18.002 543.74 18Z" fill="#280459"/>
<path d="M663.352 152.184L628.504 66.296H656.664L676.904 119.272L697.144 66.296H724.424L675.496 187.032H648.392L663.352 152.184Z" fill="#280459"/>
<path d="M580.657 60.664C580.657 50.104 583.825 41.8906 590.161 36.024C596.614 30.1573 604.769 27.224 614.625 27.224C619.67 27.224 623.836 27.8693 627.121 29.16V51.512C624.188 50.3386 621.196 49.752 618.145 49.752C614.625 49.752 611.809 50.8666 609.697 53.096C607.702 55.208 606.705 58.2586 606.705 62.248V66.296H627.121V87.416H606.705V155H580.657V87.416H566.929V66.296H580.657V60.664Z" fill="#280459"/>
<path d="M104.4 107.39V107.3C115.3 86.68 133.79 48.08 144.47 25.57C142.024 24.5817 139.407 24.087 136.769 24.1145C134.131 24.142 131.525 24.691 129.1 25.73L25.4 70.22C25.4 70.22 58.81 80.95 104.4 107.39Z" fill="#280459"/>
<path d="M158.75 143.14C176.51 122.46 205.4 88.81 218 74.14C221.729 77.8784 223.828 82.9398 223.84 88.22L223.67 201.14C223.67 201.14 200.73 174.69 158.67 143.22L158.75 143.14Z" fill="#280459"/>
<path d="M0.52002 221.56C47.45 190.79 88.23 137.86 104.36 107.39C113.14 112.48 122.29 118.1 131.91 124.45C141.53 130.8 150.45 137.13 158.65 143.26C135.39 170.36 85.05 221.56 0.52002 221.56Z" fill="#280459"/>
<path d="M201.882 0.555603C205.759 0.55564 209.548 1.70562 212.77 3.86002C217.083 6.7438 220.077 11.221 221.093 16.3091C222.109 21.3973 221.065 26.6807 218.19 31C216.042 34.2269 212.985 36.744 209.407 38.2329C205.828 39.7217 201.888 40.1154 198.085 39.3641C194.282 38.6127 190.788 36.7501 188.044 34.0119C185.3 31.2738 183.431 27.7833 182.671 23.9821C181.912 20.1809 182.298 16.2399 183.779 12.658C185.261 9.07603 187.772 6.01414 190.994 3.85981C194.217 1.70548 198.006 0.555566 201.882 0.555603Z" fill="#280459"/>
</svg>
